<?xml version="1.0" standalone="no"?>
<!DOCTYPE svg PUBLIC "-//W3C//DTD SVG 1.1//EN" "http://www.w3.org/Graphics/SVG/1.1/DTD/svg11.dtd">
<svg xmlns="http://www.w3.org/2000/svg" xmlns:xlink="http://www.w3.org/1999/xlink" version="1.1" x="0px" y="0px" width="3780" height="1080" viewBox="0 0 3780 1080" style="enable-background:new 0 0 3780 1080;" xml:space="preserve">
<style type="text/css">
	.st0{display:none;}
	
		.st1{display:inline;fill:#2B394A;stroke:#000000;stroke-width:10.24;stroke-linecap:round;stroke-linejoin:round;stroke-miterlimit:3.9873;}
	
		.st2{display:inline;fill:#DC6A24;stroke:#000000;stroke-width:10.24;stroke-linecap:round;stroke-linejoin:round;stroke-miterlimit:3.9873;}
	
		.st3{display:inline;fill:#FFFFFF;stroke:#000000;stroke-width:10.24;stroke-linecap:round;stroke-linejoin:round;stroke-miterlimit:3.9873;}
	.st4{fill:#2B394A;stroke:#000000;stroke-width:10.24;stroke-linecap:round;stroke-linejoin:round;stroke-miterlimit:3.9873;}
	.st5{fill:#DC6A24;stroke:#000000;stroke-width:10.24;stroke-linecap:round;stroke-linejoin:round;stroke-miterlimit:3.9873;}
	.st6{fill:#FFFFFF;stroke:#000000;stroke-width:10.24;stroke-linecap:round;stroke-linejoin:round;stroke-miterlimit:3.9873;}
</style>
<g id="Layer_1" class="st0">
</g>
<g id="Layer_2">
	<polygon class="st4" points="1456.9,526.4 1732.7,857.9 1872.3,857.9 1596.4,526.4 2155.6,526.4 2246.4,419.2 1202.8,419.2    1292,526.4  "/>
	<polygon class="st4" points="1567.8,857.9 1707.4,857.9 1447.8,545.9 1308.2,545.9  "/>
	<polygon class="st5" points="1969.5,776.6 1777.5,545.9 1638,545.9 1897.6,857.9 2041.2,857.9 2412.4,419.2 2271.9,419.2  "/>
	<polygon class="st6" points="1969.6,746.2 2139.1,545.9 1802.9,545.9  "/>
	<polygon class="st5" points="2207.2,857.9 2577.2,420.6 2436.7,420.6 2066.7,857.9  "/>
	<polygon class="st5" points="3665.2,849.9 3665.2,420.6 2606.7,420.6 2236.7,857.9  "/>
	<polygon class="st4" points="114.6,857.9 109.1,419.2 1173,419.2 1538,857.9  "/>
	<g>
		<path d="M1252.1,316.5v84.3h-10.4v-84.3h-22.9v-9.9h56.2v9.9H1252.1z"/>
		<path d="M1320.7,306.6c6.4,0,15.8,0.4,22.9,5.2c5.5,3.7,10.3,10.9,10.3,20.9c0,14.4-9.5,25-23.7,26l29.9,42.1h-12.7l-28.7-41.2    h-2.7v41.2h-10.4v-94.1H1320.7z M1316,350.2h6.6c13,0,20.7-6.2,20.7-17.2c0-5.2-1.6-10.4-7.5-13.8c-4.2-2.4-9-2.7-13.5-2.7h-6.4    V350.2z"/>
		<path d="M1403.4,306.6v94.1H1393v-94.1H1403.4z"/>
		<path d="M1444.8,306.6l26.5,71.8l26.5-71.8h11.6l-38.1,99.8l-38.1-99.8H1444.8z"/>
		<path d="M1549.7,306.6v94.1h-10.4v-94.1H1549.7z"/>
		<path d="M1642.4,374.2h-40.1l-11.3,26.5h-11.6l43.3-98.7l42.2,98.7h-11.6L1642.4,374.2z M1638.3,364.3l-15.8-37.7l-16.1,37.7    H1638.3z"/>
		<path d="M1744.7,306.6l26.5,71.8l26.5-71.8h11.6l-38.1,99.8l-38.1-99.8H1744.7z"/>
		<path d="M1883.8,374.2h-40.1l-11.3,26.5h-11.6l43.3-98.7l42.2,98.7h-11.6L1883.8,374.2z M1879.7,364.3l-15.8-37.7l-16.1,37.7    H1879.7z"/>
		<path d="M1936.1,400.8v-98.1l73.4,76.9v-73h10.4V405l-73.4-76.9v72.7H1936.1z"/>
		<path d="M2109.3,353.5h39.2v2.3c0,10.4-3.1,21.7-9,29.8c-2.8,3.8-13.4,16.9-35,16.9c-27.9,0-48.8-21.3-48.8-48.7    s21-48.7,49.1-48.7c9,0,19.6,2.3,28.8,9.3c4.2,3.2,8.2,7.5,10.9,11.2l-7.8,7.1c-2.7-3.8-5.8-7.2-8.9-9.7    c-4.5-3.7-11.6-7.9-22.9-7.9c-22.7,0-38.5,17.1-38.5,39c0,25.7,20.5,38.7,38.2,38.7c12.6,0,23.4-6.4,28.8-15.8    c1.7-3,3.5-7.5,3.8-13.4h-27.9V353.5z"/>
		<path d="M2194.7,364.3c0,7.9,0,16.5,7.5,22.9c3.8,3.2,10.3,5.4,15.5,5.4c5.2,0,11.7-2.1,15.5-5.4c7.5-6.4,7.5-15,7.5-22.9v-57.7    h10.4v60.6c0,7.9-0.8,15.5-5.9,22.6c-5.6,7.8-15.5,12.7-27.5,12.7c-12,0-21.9-4.9-27.5-12.7c-5.1-7.1-5.9-14.7-5.9-22.6v-60.6    h10.4V364.3z"/>
		<path d="M2343.9,374.2h-40.1l-11.3,26.5h-11.6l43.3-98.7l42.2,98.7h-11.6L2343.9,374.2z M2339.8,364.3l-15.8-37.7l-16.1,37.7    H2339.8z"/>
		<path d="M2411.4,306.6c6.4,0,15.8,0.4,22.9,5.2c5.5,3.7,10.3,10.9,10.3,20.9c0,14.4-9.5,25-23.7,26l29.9,42.1H2438l-28.7-41.2    h-2.7v41.2h-10.4v-94.1H2411.4z M2406.7,350.2h6.6c13,0,20.7-6.2,20.7-17.2c0-5.2-1.6-10.4-7.5-13.8c-4.2-2.4-9-2.7-13.5-2.7h-6.4    V350.2z"/>
		<path d="M2483.6,306.6h19.2c9.5,0,22.9,1,34.7,11c8.6,7.2,16.1,19.2,16.1,36.1c0,19.8-9.7,30.3-16.5,36.1    c-8.6,7.3-17.6,10.9-34.4,10.9h-19.1V306.6z M2494.1,390.9h9.2c7.5,0,17.8-0.8,27-8.5c7.1-5.9,12.7-15.2,12.7-28.7    c0-22.6-15.8-37.3-39.7-37.3h-9.2V390.9z"/>
	</g>
</g>
</svg>